<?xml version="1.0" encoding="UTF-8"?>
<svg xmlns="http://www.w3.org/2000/svg" width="391" height="139" viewBox="0 0 391 139" fill="none">
  <path d="M70.7138 139C51.9593 139 33.973 131.678 20.7116 118.644C7.45018 105.61 -5.21714e-07 87.9325 0 69.5C5.21714e-07 51.0675 7.45018 33.3899 20.7116 20.3561C33.973 7.3223 51.9593 -2.19806e-07 70.7138 0L70.7138 139Z" fill="#FFFFFF"></path>
  <path d="M141.449 139C122.694 139 104.708 131.678 91.4466 118.644C78.1852 105.61 70.735 87.9325 70.735 69.5C70.735 51.0675 78.1852 33.3899 91.4466 20.3561C104.708 7.3223 122.694 -2.19806e-07 141.449 0V139Z" fill="#FFFFFF"></path>
  <path d="M44.9051 18.3301H70.6926V120.628H44.9051V18.3301Z" fill="#C8E8F9"></path>
  <path d="M106.804 57.9967V80.9198H70.735V57.9967H106.804Z" fill="#C8E8F9"></path>
  <path d="M106.804 18.3301V41.2532L70.735 41.2532V18.3301H106.804Z" fill="#C8E8F9"></path>
  <path d="M106.804 97.6633V120.586H70.735V97.6633H106.804Z" fill="#C8E8F9"></path>
  <path d="M171.416 67.6002V19.7785H178.021L203.577 57.3247V19.7785H209.75V67.6002H203.146L177.589 30.0213V67.6002H171.416Z" fill="#FFFFFF"></path>
  <path d="M253.961 50.8332L260.4 52.4316C259.05 57.6292 256.616 61.598 253.098 64.3381C249.602 67.0565 245.321 68.4157 240.254 68.4157C235.009 68.4157 230.739 67.3718 227.442 65.2841C224.167 63.1747 221.667 60.1301 219.941 56.1504C218.237 52.1707 217.385 47.8974 217.385 43.3305C217.385 38.3504 218.348 34.0119 220.273 30.3149C222.22 26.5962 224.975 23.7799 228.537 21.8662C232.122 19.9307 236.061 18.963 240.353 18.963C245.221 18.963 249.314 20.1808 252.634 22.6165C255.953 25.0521 258.265 28.4773 259.57 32.8919L253.231 34.3599C252.102 30.8803 250.465 28.3468 248.319 26.7593C246.172 25.1717 243.473 24.378 240.22 24.378C236.481 24.378 233.35 25.2587 230.828 27.0202C228.327 28.7817 226.568 31.1522 225.55 34.1315C224.532 37.0891 224.024 40.1446 224.024 43.2979C224.024 47.3646 224.621 50.9202 225.816 53.9648C227.033 56.9876 228.914 59.2493 231.458 60.7499C234.003 62.2504 236.758 63.0007 239.723 63.0007C243.329 63.0007 246.383 61.9786 248.883 59.9344C251.383 57.8901 253.076 54.8564 253.961 50.8332Z" fill="#FFFFFF"></path>
  <path d="M268.102 67.6002V19.7785H274.54V67.6002H268.102Z" fill="#FFFFFF"></path>
  <path d="M284.698 67.6002V19.7785H319.88V25.4218H291.137V40.0685H318.054V45.6792H291.137V61.9568H321.008V67.6002H284.698Z" fill="#FFFFFF"></path>
  <path d="M363.261 50.8332L369.699 52.4316C368.35 57.6292 365.916 61.598 362.398 64.3381C358.902 67.0565 354.62 68.4157 349.553 68.4157C344.309 68.4157 340.038 67.3718 336.742 65.2841C333.467 63.1747 330.966 60.1301 329.241 56.1504C327.537 52.1707 326.685 47.8974 326.685 43.3305C326.685 38.3504 327.647 34.0119 329.572 30.3149C331.52 26.5962 334.274 23.7799 337.837 21.8662C341.421 19.9307 345.36 18.963 349.653 18.963C354.52 18.963 358.614 20.1808 361.933 22.6165C365.252 25.0521 367.564 28.4773 368.87 32.8919L362.53 34.3599C361.402 30.8803 359.765 28.3468 357.618 26.7593C355.472 25.1717 352.772 24.378 349.52 24.378C345.78 24.378 342.649 25.2587 340.127 27.0202C337.627 28.7817 335.868 31.1522 334.85 34.1315C333.832 37.0891 333.323 40.1446 333.323 43.2979C333.323 47.3646 333.92 50.9202 335.115 53.9648C336.332 56.9876 338.213 59.2493 340.758 60.7499C343.302 62.2504 346.057 63.0007 349.022 63.0007C352.629 63.0007 355.682 61.9786 358.182 59.9344C360.683 57.8901 362.376 54.8564 363.261 50.8332Z" fill="#FFFFFF"></path>
  <path d="M199.178 111.087C199.178 112.424 198.857 113.744 198.217 115.05C197.592 116.355 196.709 117.461 195.568 118.367C194.318 119.35 192.857 120.118 191.184 120.671C189.528 121.224 187.528 121.501 185.184 121.501C182.668 121.501 180.402 121.27 178.386 120.81C176.386 120.349 174.346 119.665 172.268 118.759V113.046H172.596C174.362 114.489 176.401 115.603 178.714 116.386C181.027 117.169 183.199 117.561 185.231 117.561C188.106 117.561 190.341 117.031 191.935 115.971C193.544 114.912 194.349 113.499 194.349 111.732C194.349 110.212 193.966 109.091 193.2 108.369C192.45 107.647 191.302 107.086 189.755 106.687C188.583 106.38 187.309 106.126 185.934 105.927C184.574 105.727 183.129 105.474 181.597 105.167C178.503 104.521 176.206 103.423 174.706 101.872C173.221 100.305 172.479 98.2704 172.479 95.7669C172.479 92.8948 173.713 90.5449 176.182 88.7172C178.652 86.8742 181.785 85.9527 185.582 85.9527C188.036 85.9527 190.286 86.183 192.333 86.6438C194.38 87.1046 196.193 87.6728 197.771 88.3486V93.7396H197.443C196.115 92.6337 194.365 91.7199 192.192 90.998C190.036 90.2608 187.825 89.8922 185.559 89.8922C183.074 89.8922 181.074 90.399 179.558 91.4127C178.058 92.4264 177.308 93.7319 177.308 95.3292C177.308 96.7576 177.683 97.8788 178.433 98.6928C179.183 99.5068 180.503 100.129 182.394 100.559C183.394 100.774 184.816 101.035 186.66 101.342C188.504 101.649 190.067 101.964 191.349 102.287C193.943 102.963 195.896 103.984 197.209 105.351C198.521 106.718 199.178 108.63 199.178 111.087Z" fill="#FFFFFF"></path>
  <path d="M228.677 108.461H209.386C209.386 110.043 209.628 111.425 210.112 112.608C210.597 113.775 211.261 114.735 212.105 115.488C212.917 116.225 213.878 116.778 214.988 117.146C216.113 117.515 217.348 117.699 218.692 117.699C220.473 117.699 222.262 117.354 224.059 116.663C225.872 115.956 227.161 115.265 227.927 114.589H228.162V119.312C226.677 119.926 225.161 120.441 223.614 120.856C222.067 121.27 220.442 121.478 218.738 121.478C214.394 121.478 211.003 120.326 208.565 118.022C206.127 115.703 204.908 112.416 204.908 108.162C204.908 103.953 206.073 100.613 208.401 98.1399C210.745 95.6671 213.824 94.4307 217.637 94.4307C221.168 94.4307 223.888 95.4444 225.794 97.4718C227.716 99.4991 228.677 102.379 228.677 106.111V108.461ZM224.388 105.144C224.372 102.87 223.786 101.112 222.63 99.8678C221.489 98.6237 219.746 98.0017 217.402 98.0017C215.043 98.0017 213.16 98.6851 211.753 100.052C210.362 101.419 209.573 103.116 209.386 105.144H224.388Z" fill="#FFFFFF"></path>
  <path d="M252.176 99.8678H251.942C251.285 99.7142 250.645 99.6067 250.019 99.5452C249.41 99.4684 248.683 99.43 247.839 99.43C246.48 99.43 245.167 99.7295 243.901 100.329C242.636 100.912 241.417 101.672 240.245 102.609V120.879H235.838V95.1449H240.245V98.9462C241.995 97.5639 243.534 96.5886 244.863 96.0204C246.206 95.4367 247.574 95.1449 248.965 95.1449C249.73 95.1449 250.285 95.168 250.629 95.214C250.973 95.2447 251.488 95.3139 252.176 95.4214V99.8678Z" fill="#FFFFFF"></path>
  <path d="M279.449 95.1449L268.854 120.879H264.423L253.898 95.1449H258.68L266.791 115.626L274.831 95.1449H279.449Z" fill="#FFFFFF"></path>
  <path d="M290.43 90.8368H285.461V86.3443H290.43V90.8368ZM290.149 120.879H285.742V95.1449H290.149V120.879Z" fill="#FFFFFF"></path>
  <path d="M318.711 119.266C317.242 119.957 315.843 120.495 314.515 120.879C313.202 121.263 311.804 121.455 310.319 121.455C308.428 121.455 306.694 121.186 305.115 120.648C303.537 120.095 302.185 119.266 301.06 118.16C299.919 117.054 299.036 115.657 298.411 113.967C297.786 112.278 297.474 110.304 297.474 108.046C297.474 103.838 298.646 100.536 300.99 98.1399C303.349 95.7439 306.459 94.5459 310.319 94.5459C311.819 94.5459 313.288 94.7533 314.726 95.168C316.179 95.5826 317.507 96.0895 318.711 96.6885V101.503H318.476C317.132 100.474 315.742 99.6834 314.304 99.1305C312.882 98.5776 311.491 98.3012 310.132 98.3012C307.631 98.3012 305.654 99.1305 304.201 100.789C302.763 102.433 302.044 104.852 302.044 108.046C302.044 111.149 302.748 113.537 304.154 115.211C305.576 116.87 307.569 117.699 310.132 117.699C311.022 117.699 311.929 117.584 312.851 117.354C313.773 117.123 314.601 116.824 315.335 116.455C315.976 116.133 316.578 115.795 317.14 115.442C317.703 115.073 318.148 114.758 318.476 114.497H318.711V119.266Z" fill="#FFFFFF"></path>
  <path d="M346.78 108.461H327.489C327.489 110.043 327.731 111.425 328.215 112.608C328.7 113.775 329.364 114.735 330.208 115.488C331.021 116.225 331.982 116.778 333.091 117.146C334.216 117.515 335.451 117.699 336.795 117.699C338.576 117.699 340.366 117.354 342.163 116.663C343.975 115.956 345.265 115.265 346.03 114.589H346.265V119.312C344.78 119.926 343.264 120.441 341.717 120.856C340.17 121.27 338.545 121.478 336.842 121.478C332.497 121.478 329.106 120.326 326.668 118.022C324.231 115.703 323.012 112.416 323.012 108.162C323.012 103.953 324.176 100.613 326.504 98.1399C328.848 95.6671 331.927 94.4307 335.74 94.4307C339.272 94.4307 341.991 95.4444 343.897 97.4718C345.819 99.4991 346.78 102.379 346.78 106.111V108.461ZM342.491 105.144C342.475 102.87 341.889 101.112 340.733 99.8678C339.592 98.6237 337.85 98.0017 335.506 98.0017C333.146 98.0017 331.263 98.6851 329.856 100.052C328.466 101.419 327.676 103.116 327.489 105.144H342.491Z" fill="#FFFFFF"></path>
  <path d="M372.647 113.46C372.647 115.81 371.654 117.738 369.67 119.243C367.701 120.748 365.005 121.501 361.583 121.501C359.645 121.501 357.863 121.278 356.238 120.833C354.629 120.372 353.277 119.873 352.183 119.335V114.474H352.417C353.808 115.503 355.355 116.325 357.059 116.939C358.762 117.538 360.395 117.838 361.958 117.838C363.896 117.838 365.411 117.53 366.505 116.916C367.599 116.302 368.146 115.334 368.146 114.013C368.146 113 367.849 112.232 367.255 111.709C366.662 111.187 365.521 110.742 363.833 110.373C363.208 110.235 362.388 110.074 361.372 109.889C360.372 109.705 359.457 109.505 358.629 109.29C356.332 108.691 354.699 107.816 353.73 106.664C352.777 105.497 352.3 104.068 352.3 102.379C352.3 101.319 352.519 100.321 352.957 99.3839C353.41 98.4471 354.09 97.61 354.996 96.8728C355.871 96.1509 356.981 95.5826 358.324 95.168C359.684 94.7379 361.2 94.5229 362.872 94.5229C364.435 94.5229 366.013 94.7149 367.607 95.0988C369.217 95.4674 370.553 95.9205 371.615 96.4581V101.089H371.381C370.256 100.275 368.888 99.5913 367.279 99.0384C365.669 98.4701 364.091 98.186 362.544 98.186C360.934 98.186 359.575 98.4931 358.465 99.1075C357.356 99.7065 356.801 100.605 356.801 101.803C356.801 102.863 357.137 103.661 357.809 104.199C358.465 104.737 359.528 105.174 360.997 105.512C361.809 105.696 362.716 105.881 363.716 106.065C364.732 106.249 365.575 106.418 366.247 106.572C368.295 107.033 369.873 107.824 370.982 108.945C372.092 110.081 372.647 111.587 372.647 113.46Z" fill="#FFFFFF"></path>
  <path d="M388.241 47.9758L388.015 46.5605C388.592 46.481 389.034 46.261 389.342 45.9005C389.649 45.5348 389.803 45.0259 389.803 44.3739C389.803 43.7166 389.668 43.2289 389.398 42.9108C389.123 42.5928 388.802 42.4338 388.435 42.4338C388.106 42.4338 387.848 42.5742 387.659 42.8552C387.529 43.0513 387.365 43.539 387.165 44.3182C386.896 45.3678 386.664 46.0966 386.47 46.5048C386.27 46.9077 385.998 47.2151 385.652 47.4272C385.302 47.6339 384.916 47.7373 384.496 47.7373C384.113 47.7373 383.759 47.6524 383.436 47.4828C383.107 47.3079 382.834 47.072 382.619 46.7752C382.451 46.5525 382.311 46.2504 382.198 45.8687C382.079 45.4817 382.02 45.0683 382.02 44.6283C382.02 43.9657 382.117 43.3853 382.311 42.887C382.505 42.3834 382.77 42.0123 383.104 41.7738C383.433 41.5353 383.875 41.3709 384.431 41.2808L384.625 42.6803C384.183 42.7439 383.838 42.9294 383.589 43.2368C383.341 43.539 383.217 43.9684 383.217 44.5249C383.217 45.1822 383.328 45.6514 383.549 45.9323C383.77 46.2133 384.029 46.3537 384.326 46.3537C384.514 46.3537 384.684 46.2954 384.835 46.1788C384.992 46.0622 385.121 45.8793 385.224 45.6302C385.278 45.487 385.402 45.0656 385.596 44.3659C385.871 43.3535 386.097 42.6484 386.275 42.2509C386.448 41.848 386.701 41.5326 387.036 41.3047C387.37 41.0768 387.786 40.9628 388.282 40.9628C388.767 40.9628 389.226 41.1033 389.657 41.3842C390.083 41.6598 390.415 42.0601 390.652 42.5848C390.884 43.1096 391 43.7033 391 44.3659C391 45.4632 390.768 46.3007 390.304 46.8785C389.84 47.451 389.153 47.8168 388.241 47.9758Z" fill="#FFFFFF"></path>
  <path d="M389.746 32.4483C390.204 32.9783 390.528 33.4899 390.717 33.9829C390.906 34.4705 391 34.9953 391 35.5572C391 36.4848 390.771 37.1978 390.312 37.6961C389.849 38.1944 389.258 38.4435 388.541 38.4435C388.12 38.4435 387.737 38.3507 387.392 38.1652C387.041 37.9744 386.761 37.7279 386.55 37.4257C386.34 37.1183 386.181 36.7737 386.073 36.3921C385.998 36.1111 385.925 35.6871 385.855 35.1199C385.714 33.9643 385.547 33.1135 385.353 32.5675C385.154 32.5622 385.027 32.5596 384.973 32.5596C384.38 32.5596 383.962 32.6948 383.719 32.9651C383.39 33.3308 383.225 33.8742 383.225 34.5951C383.225 35.2683 383.347 35.7666 383.589 36.0899C383.827 36.408 384.25 36.6439 384.86 36.7976L384.665 38.197C384.056 38.0698 383.565 37.8604 383.193 37.5689C382.815 37.2773 382.527 36.8559 382.327 36.3046C382.122 35.7533 382.02 35.1146 382.02 34.3884C382.02 33.6675 382.106 33.0817 382.279 32.6311C382.451 32.1806 382.67 31.8493 382.934 31.6372C383.193 31.4252 383.522 31.2768 383.921 31.192C384.169 31.1443 384.617 31.1204 385.264 31.1204H387.206C388.559 31.1204 389.417 31.0912 389.778 31.0329C390.134 30.9693 390.477 30.8474 390.806 30.6672V32.162C390.504 32.3104 390.151 32.4059 389.746 32.4483ZM386.494 32.5675C386.71 33.087 386.893 33.8662 387.044 34.9052C387.13 35.4936 387.227 35.9097 387.335 36.1535C387.443 36.3974 387.602 36.5856 387.812 36.7181C388.017 36.8506 388.247 36.9169 388.5 36.9169C388.888 36.9169 389.212 36.7737 389.471 36.4875C389.73 36.196 389.859 35.7719 389.859 35.2153C389.859 34.664 389.738 34.1737 389.495 33.7443C389.247 33.3149 388.91 32.9995 388.484 32.7981C388.155 32.6444 387.67 32.5675 387.028 32.5675H386.494ZM381.146 33.3468V34.4997L378.881 36.3364V34.4202L381.146 33.3468Z" fill="#FFFFFF"></path>
  <path d="M390.806 27.6072L382.214 27.6072V26.3191H383.517C382.907 25.9905 382.505 25.6883 382.311 25.4127C382.117 25.1317 382.02 24.8243 382.02 24.4903C382.02 24.008 382.176 23.5176 382.489 23.0193L383.84 23.5123C383.63 23.8622 383.525 24.212 383.525 24.5619C383.525 24.8746 383.622 25.1556 383.816 25.4047C384.005 25.6539 384.269 25.8314 384.609 25.9375C385.127 26.0965 385.693 26.176 386.308 26.176H390.806V27.6072Z" fill="#FFFFFF"></path>
  <path d="M390.806 20.8976H378.946V19.4664H390.806V20.8976Z" fill="#FFFFFF"></path>
</svg>
